<svg xmlns="http://www.w3.org/2000/svg" viewBox="0 0 240 120" fill="none">
<g stroke="#5C574E" stroke-width="3" stroke-linejoin="round">
<polygon points="14,40 30,28 50,28 64,40 50,52 30,52" fill="#C9CDD3"/>
<line x1="34" y1="34" x2="34" y2="48"/><line x1="46" y1="34" x2="46" y2="48"/>
<rect x="64" y="36" width="150" height="12" rx="2" fill="#D7DADF"/>
</g>
<g stroke="#8A857B" stroke-width="2">
<line x1="78" y1="36" x2="78" y2="48"/><line x1="92" y1="36" x2="92" y2="48"/><line x1="106" y1="36" x2="106" y2="48"/>
<line x1="120" y1="36" x2="120" y2="48"/><line x1="134" y1="36" x2="134" y2="48"/><line x1="148" y1="36" x2="148" y2="48"/>
<line x1="162" y1="36" x2="162" y2="48"/><line x1="176" y1="36" x2="176" y2="48"/><line x1="190" y1="36" x2="190" y2="48"/><line x1="204" y1="36" x2="204" y2="48"/>
</g>
<text x="120" y="86" text-anchor="middle" font-family="'Space Mono',monospace" font-size="20" font-weight="700" fill="#5C574E">M10</text>
</svg>
