<svg xmlns="http://www.w3.org/2000/svg" viewBox="-1388 -1258 2942 1823"><defs><marker id="ar" markerWidth="11" markerHeight="11" refX="9" refY="5.5" orient="auto"><path d="M0,0 L11,5.5 L0,11 Z" fill="#b3261e"/></marker><marker id="dt" markerWidth="9" markerHeight="9" refX="4.5" refY="4.5" orient="auto"><circle cx="4.5" cy="4.5" r="3.4" fill="#b3261e"/></marker></defs><style>text{font-family:Helvetica,Arial,sans-serif}.l{fill:#1a1a1a}.s{fill:#555}.d{fill:#b3261e;font-family:"Courier New",monospace;font-weight:bold}.bal{fill:#fff;font-weight:bold}</style><g opacity="1.0"><polygon points="-47.6,-72.5 437.3,207.5 437.3,162.5 -47.6,-117.5" fill="#e0a97e" stroke="#1a1a1a" stroke-width="3.2" stroke-linejoin="round"/><polygon points="476.3,185.0 476.3,140.0 437.3,162.5 437.3,207.5" fill="#eec3a0" stroke="#1a1a1a" stroke-width="3.2" stroke-linejoin="round"/><polygon points="-8.7,-140.0 476.3,140.0 437.3,162.5 -47.6,-117.5" fill="#f6dcc6" stroke="#1a1a1a" stroke-width="3.2" stroke-linejoin="round"/></g><g opacity="1.0"><polygon points="-100.5,0.0 -50.2,29.0 -50.2,-971.0 -100.5,-1000.0" fill="#cbc3b3" stroke="#1a1a1a" stroke-width="3.2" stroke-linejoin="round"/><polygon points="0.0,0.0 0.0,-1000.0 -50.2,-971.0 -50.2,29.0" fill="#ded8cc" stroke="#1a1a1a" stroke-width="3.2" stroke-linejoin="round"/><polygon points="-50.2,-1029.0 0.0,-1000.0 -50.2,-971.0 -100.5,-1000.0" fill="#efece6" stroke="#1a1a1a" stroke-width="3.2" stroke-linejoin="round"/></g><g opacity="1.0"><polygon points="-47.6,-72.5 -8.7,-50.0 -8.7,-950.0 -47.6,-972.5" fill="#e0a97e" stroke="#1a1a1a" stroke-width="3.2" stroke-linejoin="round"/><polygon points="30.3,-72.5 30.3,-972.5 -8.7,-950.0 -8.7,-50.0" fill="#eec3a0" stroke="#1a1a1a" stroke-width="3.2" stroke-linejoin="round"/><polygon points="-8.7,-995.0 30.3,-972.5 -8.7,-950.0 -47.6,-972.5" fill="#f6dcc6" stroke="#1a1a1a" stroke-width="3.2" stroke-linejoin="round"/></g><g opacity="1.0"><polygon points="39.8,-78.0 55.4,-69.0 55.4,-879.0 39.8,-888.0" fill="#e0a97e" stroke="#1a1a1a" stroke-width="3.2" stroke-linejoin="round"/><polygon points="79.7,-83.0 79.7,-893.0 55.4,-879.0 55.4,-69.0" fill="#eec3a0" stroke="#1a1a1a" stroke-width="3.2" stroke-linejoin="round"/><polygon points="64.1,-902.0 79.7,-893.0 55.4,-879.0 39.8,-888.0" fill="#f6dcc6" stroke="#1a1a1a" stroke-width="3.2" stroke-linejoin="round"/></g><g opacity="1.0"><polygon points="131.6,-25.0 147.2,-16.0 147.2,-826.0 131.6,-835.0" fill="#e0a97e" stroke="#1a1a1a" stroke-width="3.2" stroke-linejoin="round"/><polygon points="171.5,-30.0 171.5,-840.0 147.2,-826.0 147.2,-16.0" fill="#eec3a0" stroke="#1a1a1a" stroke-width="3.2" stroke-linejoin="round"/><polygon points="155.9,-849.0 171.5,-840.0 147.2,-826.0 131.6,-835.0" fill="#f6dcc6" stroke="#1a1a1a" stroke-width="3.2" stroke-linejoin="round"/></g><g opacity="1.0"><polygon points="223.4,28.0 239.0,37.0 239.0,-773.0 223.4,-782.0" fill="#e0a97e" stroke="#1a1a1a" stroke-width="3.2" stroke-linejoin="round"/><polygon points="263.3,23.0 263.3,-787.0 239.0,-773.0 239.0,37.0" fill="#eec3a0" stroke="#1a1a1a" stroke-width="3.2" stroke-linejoin="round"/><polygon points="247.7,-796.0 263.3,-787.0 239.0,-773.0 223.4,-782.0" fill="#f6dcc6" stroke="#1a1a1a" stroke-width="3.2" stroke-linejoin="round"/></g><g opacity="1.0"><polygon points="315.2,81.0 330.8,90.0 330.8,-720.0 315.2,-729.0" fill="#e0a97e" stroke="#1a1a1a" stroke-width="3.2" stroke-linejoin="round"/><polygon points="355.1,76.0 355.1,-734.0 330.8,-720.0 330.8,90.0" fill="#eec3a0" stroke="#1a1a1a" stroke-width="3.2" stroke-linejoin="round"/><polygon points="339.5,-743.0 355.1,-734.0 330.8,-720.0 315.2,-729.0" fill="#f6dcc6" stroke="#1a1a1a" stroke-width="3.2" stroke-linejoin="round"/></g><g opacity="1.0"><polygon points="434.7,309.0 485.0,338.0 485.0,-662.0 434.7,-691.0" fill="#cbc3b3" stroke="#1a1a1a" stroke-width="3.2" stroke-linejoin="round"/><polygon points="535.2,309.0 535.2,-691.0 485.0,-662.0 485.0,338.0" fill="#ded8cc" stroke="#1a1a1a" stroke-width="3.2" stroke-linejoin="round"/><polygon points="485.0,-720.0 535.2,-691.0 485.0,-662.0 434.7,-691.0" fill="#efece6" stroke="#1a1a1a" stroke-width="3.2" stroke-linejoin="round"/></g><g opacity="1.0"><polygon points="398.4,185.0 437.3,207.5 437.3,-692.5 398.4,-715.0" fill="#e0a97e" stroke="#1a1a1a" stroke-width="3.2" stroke-linejoin="round"/><polygon points="476.3,185.0 476.3,-715.0 437.3,-692.5 437.3,207.5" fill="#eec3a0" stroke="#1a1a1a" stroke-width="3.2" stroke-linejoin="round"/><polygon points="437.3,-737.5 476.3,-715.0 437.3,-692.5 398.4,-715.0" fill="#f6dcc6" stroke="#1a1a1a" stroke-width="3.2" stroke-linejoin="round"/></g><g opacity="1.0"><polygon points="-47.6,-927.5 437.3,-647.5 437.3,-692.5 -47.6,-972.5" fill="#e0a97e" stroke="#1a1a1a" stroke-width="3.2" stroke-linejoin="round"/><polygon points="476.3,-670.0 476.3,-715.0 437.3,-692.5 437.3,-647.5" fill="#eec3a0" stroke="#1a1a1a" stroke-width="3.2" stroke-linejoin="round"/><polygon points="-8.7,-995.0 476.3,-715.0 437.3,-692.5 -47.6,-972.5" fill="#f6dcc6" stroke="#1a1a1a" stroke-width="3.2" stroke-linejoin="round"/></g><line x1="-39.0" y1="-77.5" x2="-39.0" y2="162.5" stroke="#b3261e" stroke-width="1.6" stroke-dasharray="6 6"/><line x1="446.0" y1="202.5" x2="446.0" y2="442.5" stroke="#b3261e" stroke-width="1.6" stroke-dasharray="6 6"/><line x1="-39.0" y1="162.5" x2="446.0" y2="442.5" stroke="#b3261e" stroke-width="2.6" marker-start="url(#dt)" marker-end="url(#dt)"/><line x1="-39.0" y1="-77.5" x2="-239.0" y2="-77.5" stroke="#b3261e" stroke-width="1.6" stroke-dasharray="6 6"/><line x1="-39.0" y1="-977.5" x2="-239.0" y2="-977.5" stroke="#b3261e" stroke-width="1.6" stroke-dasharray="6 6"/><line x1="-239.0" y1="-77.5" x2="-239.0" y2="-977.5" stroke="#b3261e" stroke-width="2.6" marker-start="url(#dt)" marker-end="url(#dt)"/><line x1="-103.9" y1="-210.0" x2="164.5" y2="-365.0" stroke="#b3261e" stroke-width="6" marker-end="url(#ar)"/><line x1="-50.2" y1="-955.0" x2="-280.2" y2="-1105.0" stroke="#1a1a1a" stroke-width="2.2"/><circle cx="-50.2" cy="-955.0" r="5" fill="#1a1a1a"/><line x1="446.0" y1="-697.5" x2="676.0" y2="-807.5" stroke="#1a1a1a" stroke-width="2.2"/><circle cx="446.0" cy="-697.5" r="5" fill="#1a1a1a"/><line x1="-60.6" y1="-235.0" x2="139.4" y2="-35.0" stroke="#1a1a1a" stroke-width="2.2"/><circle cx="-60.6" cy="-235.0" r="5" fill="#1a1a1a"/><text class="d" style="font-size:45.5px" x="203.5" y="343.5" text-anchor="middle">gol 560</text><text class="d" style="font-size:45.5px" x="-239.0" y="-546.6" text-anchor="middle">900</text><text class="l" style="font-size:45.5px" x="-296.2" y="-1089.5" text-anchor="end">2 balamale cu ARC — se inchide singura</text><text class="l" style="font-size:45.5px" x="691.9" y="-792.0" text-anchor="start">zavor SUS, la 1000 de dusumea</text><text class="l" style="font-size:45.5px" x="155.3" y="-19.5" text-anchor="start">se deschide spre PUNTE, niciodata spre gol</text><text class="l" style="font-size:45.5px" x="0.0" y="15.5" text-anchor="start"></text></svg>