<svg xmlns="http://www.w3.org/2000/svg" viewBox="-2999 -2012 3633 2824"><defs><marker id="ar" markerWidth="11" markerHeight="11" refX="9" refY="5.5" orient="auto"><path d="M0,0 L11,5.5 L0,11 Z" fill="#b3261e"/></marker><marker id="dt" markerWidth="9" markerHeight="9" refX="4.5" refY="4.5" orient="auto"><circle cx="4.5" cy="4.5" r="3.4" fill="#b3261e"/></marker></defs><style>text{font-family:Helvetica,Arial,sans-serif}.l{fill:#1a1a1a}.s{fill:#555}.d{fill:#b3261e;font-family:"Courier New",monospace;font-weight:bold}.bal{fill:#fff;font-weight:bold}</style><polygon points="-353.3,-832.0 -303.1,-803.0 -353.3,-774.0 -403.6,-803.0" fill="none" stroke="#9a9a9a" stroke-width="2.6" stroke-dasharray="14 10"/><polygon points="-303.1,125.0 -303.1,-803.0 -353.3,-774.0 -353.3,154.0" fill="none" stroke="#9a9a9a" stroke-width="2.6" stroke-dasharray="14 10"/><polygon points="-403.6,125.0 -353.3,154.0 -353.3,-774.0 -403.6,-803.0" fill="none" stroke="#9a9a9a" stroke-width="2.6" stroke-dasharray="14 10"/><g opacity="1.0"><polygon points="-834.0,-190.5 -626.1,-70.5 -626.1,-82.5 -834.0,-202.5" fill="#b8bdc3" stroke="#1a1a1a" stroke-width="3.2" stroke-linejoin="round"/><polygon points="-615.7,-76.5 -615.7,-88.5 -626.1,-82.5 -626.1,-70.5" fill="#cfd3d7" stroke="#1a1a1a" stroke-width="3.2" stroke-linejoin="round"/><polygon points="-823.6,-208.5 -615.7,-88.5 -626.1,-82.5 -834.0,-202.5" fill="#e4e6e8" stroke="#1a1a1a" stroke-width="3.2" stroke-linejoin="round"/></g><g opacity="1.0"><polygon points="-834.0,-290.5 -626.1,-170.5 -626.1,-182.5 -834.0,-302.5" fill="#b8bdc3" stroke="#1a1a1a" stroke-width="3.2" stroke-linejoin="round"/><polygon points="-615.7,-176.5 -615.7,-188.5 -626.1,-182.5 -626.1,-170.5" fill="#cfd3d7" stroke="#1a1a1a" stroke-width="3.2" stroke-linejoin="round"/><polygon points="-823.6,-308.5 -615.7,-188.5 -626.1,-182.5 -834.0,-302.5" fill="#e4e6e8" stroke="#1a1a1a" stroke-width="3.2" stroke-linejoin="round"/></g><g opacity="1.0"><polygon points="-736.1,375.0 -649.5,425.0 -649.5,225.0 -736.1,175.0" fill="#cbc3b3" stroke="#1a1a1a" stroke-width="3.2" stroke-linejoin="round"/><polygon points="43.3,25.0 43.3,-175.0 -649.5,225.0 -649.5,425.0" fill="#ded8cc" stroke="#1a1a1a" stroke-width="3.2" stroke-linejoin="round"/><polygon points="-43.3,-225.0 43.3,-175.0 -649.5,225.0 -736.1,175.0" fill="#efece6" stroke="#1a1a1a" stroke-width="3.2" stroke-linejoin="round"/></g><g opacity="1.0"><polygon points="-736.1,175.0 -424.4,355.0 -424.4,327.0 -736.1,147.0" fill="#cbc3b3" stroke="#1a1a1a" stroke-width="3.2" stroke-linejoin="round"/><polygon points="268.5,-45.0 268.5,-73.0 -424.4,327.0 -424.4,355.0" fill="#ded8cc" stroke="#1a1a1a" stroke-width="3.2" stroke-linejoin="round"/><polygon points="-43.3,-253.0 268.5,-73.0 -424.4,327.0 -736.1,147.0" fill="#efece6" stroke="#1a1a1a" stroke-width="3.2" stroke-linejoin="round"/></g><g opacity="1.0"><polygon points="-767.3,-865.0 -717.1,-836.0 -717.1,-1764.0 -767.3,-1793.0" fill="#e0a97e" stroke="#1a1a1a" stroke-width="3.2" stroke-linejoin="round"/><polygon points="-666.8,-865.0 -666.8,-1793.0 -717.1,-1764.0 -717.1,-836.0" fill="#eec3a0" stroke="#1a1a1a" stroke-width="3.2" stroke-linejoin="round"/><polygon points="-717.1,-1822.0 -666.8,-1793.0 -717.1,-1764.0 -767.3,-1793.0" fill="#f6dcc6" stroke="#1a1a1a" stroke-width="3.2" stroke-linejoin="round"/></g><line x1="-717.9" y1="-774.5" x2="-354.2" y2="-4.5" stroke="#b3261e" stroke-width="6" marker-end="url(#ar)"/><line x1="-595.0" y1="-64.5" x2="-413.1" y2="40.5" stroke="#b3261e" stroke-width="6" marker-end="url(#ar)"/><line x1="-595.0" y1="-164.5" x2="-413.1" y2="-59.5" stroke="#b3261e" stroke-width="6" marker-end="url(#ar)"/><line x1="-743.0" y1="-199.0" x2="-1043.0" y2="-499.0" stroke="#1a1a1a" stroke-width="2.2"/><circle cx="-743.0" cy="-199.0" r="5" fill="#1a1a1a"/><line x1="-403.6" y1="125.0" x2="-763.6" y2="125.0" stroke="#b3261e" stroke-width="1.6" stroke-dasharray="6 6"/><line x1="-403.6" y1="-75.0" x2="-763.6" y2="-75.0" stroke="#b3261e" stroke-width="1.6" stroke-dasharray="6 6"/><line x1="-763.6" y1="125.0" x2="-763.6" y2="-75.0" stroke="#b3261e" stroke-width="2.6" marker-start="url(#dt)" marker-end="url(#dt)"/><line x1="-736.1" y1="275.0" x2="-436.1" y2="575.0" stroke="#1a1a1a" stroke-width="2.2"/><circle cx="-736.1" cy="275.0" r="5" fill="#1a1a1a"/><line x1="-459.0" y1="187.0" x2="21.0" y2="307.0" stroke="#1a1a1a" stroke-width="2.2"/><circle cx="-459.0" cy="187.0" r="5" fill="#1a1a1a"/><line x1="-328.2" y1="-789.5" x2="-588.2" y2="-969.5" stroke="#1a1a1a" stroke-width="2.2"/><circle cx="-328.2" cy="-789.5" r="5" fill="#1a1a1a"/><text class="l" style="font-size:70.5px" x="-1067.7" y="-475.0" text-anchor="end">2× M10×120 + 2 saibe late + piulita</text><text class="d" style="font-size:70.5px" x="-763.6" y="-4.6" text-anchor="middle">200 lap pe joista</text><text class="s" style="font-size:66.5px" x="-412.8" y="597.6" text-anchor="start">joista de capat 100×200</text><text class="s" style="font-size:66.5px" x="44.3" y="329.6" text-anchor="start">dusumea 28</text><text class="s" style="font-size:66.5px" x="-611.5" y="-946.9" text-anchor="end">gaureste Ø11 prin joista DUPA ce ai insemnat prin stalpisor</text></svg>