<svg xmlns="http://www.w3.org/2000/svg" viewBox="-1183 -1667 2585 2011"><defs><marker id="ar" markerWidth="11" markerHeight="11" refX="9" refY="5.5" orient="auto"><path d="M0,0 L11,5.5 L0,11 Z" fill="#b3261e"/></marker><marker id="dt" markerWidth="9" markerHeight="9" refX="4.5" refY="4.5" orient="auto"><circle cx="4.5" cy="4.5" r="3.4" fill="#b3261e"/></marker></defs><style>text{font-family:Helvetica,Arial,sans-serif}.l{fill:#1a1a1a}.s{fill:#555}.d{fill:#b3261e;font-family:"Courier New",monospace;font-weight:bold}.bal{fill:#fff;font-weight:bold}</style><g opacity="1.0"><polygon points="-47.6,-36.5 37.2,12.5 37.2,0.5 -47.6,-48.5" fill="#b8bdc3" stroke="#1a1a1a" stroke-width="3.2" stroke-linejoin="round"/><polygon points="47.6,6.5 47.6,-5.5 37.2,0.5 37.2,12.5" fill="#cfd3d7" stroke="#1a1a1a" stroke-width="3.2" stroke-linejoin="round"/><polygon points="-37.2,-54.5 47.6,-5.5 37.2,0.5 -47.6,-48.5" fill="#e4e6e8" stroke="#1a1a1a" stroke-width="3.2" stroke-linejoin="round"/></g><g opacity="1.0"><polygon points="-47.6,-136.5 37.2,-87.5 37.2,-99.5 -47.6,-148.5" fill="#b8bdc3" stroke="#1a1a1a" stroke-width="3.2" stroke-linejoin="round"/><polygon points="47.6,-93.5 47.6,-105.5 37.2,-99.5 37.2,-87.5" fill="#cfd3d7" stroke="#1a1a1a" stroke-width="3.2" stroke-linejoin="round"/><polygon points="-37.2,-154.5 47.6,-105.5 37.2,-99.5 -47.6,-148.5" fill="#e4e6e8" stroke="#1a1a1a" stroke-width="3.2" stroke-linejoin="round"/></g><g opacity="1.0"><polygon points="-50.2,29.0 0.0,58.0 0.0,-1272.0 -50.2,-1301.0" fill="#e0a97e" stroke="#1a1a1a" stroke-width="3.2" stroke-linejoin="round"/><polygon points="50.2,29.0 50.2,-1301.0 0.0,-1272.0 0.0,58.0" fill="#eec3a0" stroke="#1a1a1a" stroke-width="3.2" stroke-linejoin="round"/><polygon points="0.0,-1330.0 50.2,-1301.0 0.0,-1272.0 -50.2,-1301.0" fill="#f6dcc6" stroke="#1a1a1a" stroke-width="3.2" stroke-linejoin="round"/></g><line x1="0.0" y1="0.0" x2="-190.0" y2="0.0" stroke="#b3261e" stroke-width="1.6" stroke-dasharray="6 6"/><line x1="0.0" y1="-50.0" x2="-190.0" y2="-50.0" stroke="#b3261e" stroke-width="1.6" stroke-dasharray="6 6"/><line x1="-190.0" y1="0.0" x2="-190.0" y2="-50.0" stroke="#b3261e" stroke-width="2.6" marker-start="url(#dt)" marker-end="url(#dt)"/><line x1="0.0" y1="0.0" x2="-190.0" y2="0.0" stroke="#b3261e" stroke-width="1.6" stroke-dasharray="6 6"/><line x1="0.0" y1="-150.0" x2="-190.0" y2="-150.0" stroke="#b3261e" stroke-width="1.6" stroke-dasharray="6 6"/><line x1="-190.0" y1="0.0" x2="-190.0" y2="-150.0" stroke="#b3261e" stroke-width="2.6" marker-start="url(#dt)" marker-end="url(#dt)"/><line x1="-50.2" y1="29.0" x2="-380.2" y2="29.0" stroke="#b3261e" stroke-width="1.6" stroke-dasharray="6 6"/><line x1="-50.2" y1="-1301.0" x2="-380.2" y2="-1301.0" stroke="#b3261e" stroke-width="1.6" stroke-dasharray="6 6"/><line x1="-380.2" y1="29.0" x2="-380.2" y2="-1301.0" stroke="#b3261e" stroke-width="2.6" marker-start="url(#dt)" marker-end="url(#dt)"/><line x1="0.0" y1="-1330.0" x2="0.0" y2="-1480.0" stroke="#b3261e" stroke-width="1.6" stroke-dasharray="6 6"/><line x1="50.2" y1="-1301.0" x2="50.2" y2="-1451.0" stroke="#b3261e" stroke-width="1.6" stroke-dasharray="6 6"/><line x1="0.0" y1="-1480.0" x2="50.2" y2="-1451.0" stroke="#b3261e" stroke-width="2.6" marker-start="url(#dt)" marker-end="url(#dt)"/><line x1="25.1" y1="-106.5" x2="225.1" y2="-166.5" stroke="#1a1a1a" stroke-width="2.2"/><circle cx="25.1" cy="-106.5" r="5" fill="#1a1a1a"/><line x1="0.0" y1="-1301.0" x2="160.0" y2="-1421.0" stroke="#1a1a1a" stroke-width="2.2"/><circle cx="0.0" cy="-1301.0" r="5" fill="#1a1a1a"/><line x1="0.0" y1="29.0" x2="-160.0" y2="179.0" stroke="#1a1a1a" stroke-width="2.2"/><circle cx="0.0" cy="29.0" r="5" fill="#1a1a1a"/><text class="d" style="font-size:48.8px" x="-190.0" y="-45.5" text-anchor="middle">50</text><text class="d" style="font-size:48.8px" x="-190.0" y="-95.5" text-anchor="middle">150</text><text class="d" style="font-size:48.8px" x="-380.2" y="-656.5" text-anchor="middle">1330 (fata) · 1230 (latura)</text><text class="d" style="font-size:48.8px" x="25.1" y="-1486.0" text-anchor="middle">58</text><text class="l" style="font-size:48.8px" x="242.2" y="-149.9" text-anchor="start">2 gauri Ø11 strapunse</text><text class="l" style="font-size:48.8px" x="177.1" y="-1404.4" text-anchor="start">capatul cu REZERVA — se reteaza la final</text><text class="l" style="font-size:48.8px" x="-177.1" y="195.6" text-anchor="end">capatul de JOS (intra pe joista)</text><text class="l" style="font-size:48.8px" x="0.0" y="16.6" text-anchor="start"></text></svg>