<svg xmlns="http://www.w3.org/2000/svg" viewBox="-3468 -2880 9930 4664"><defs><marker id="ar" markerWidth="11" markerHeight="11" refX="9" refY="5.5" orient="auto"><path d="M0,0 L11,5.5 L0,11 Z" fill="#b3261e"/></marker><marker id="dt" markerWidth="9" markerHeight="9" refX="4.5" refY="4.5" orient="auto"><circle cx="4.5" cy="4.5" r="3.4" fill="#b3261e"/></marker></defs><style>text{font-family:Helvetica,Arial,sans-serif}.l{fill:#1a1a1a}.s{fill:#555}.d{fill:#b3261e;font-family:"Courier New",monospace;font-weight:bold}.bal{fill:#fff;font-weight:bold}</style><g opacity="1.0"><polygon points="-39.0,-19.5 0.0,3.0 0.0,-1555.0 -39.0,-1577.5" fill="#e0a97e" stroke="#1a1a1a" stroke-width="3.2" stroke-linejoin="round"/><polygon points="39.0,-19.5 39.0,-1577.5 0.0,-1555.0 0.0,3.0" fill="#eec3a0" stroke="#1a1a1a" stroke-width="3.2" stroke-linejoin="round"/><polygon points="0.0,-1600.0 39.0,-1577.5 0.0,-1555.0 -39.0,-1577.5" fill="#f6dcc6" stroke="#1a1a1a" stroke-width="3.2" stroke-linejoin="round"/></g><g opacity="1.0"><polygon points="0.0,3.0 39.0,25.5 39.0,-1532.5 0.0,-1555.0" fill="#e0a97e" stroke="#1a1a1a" stroke-width="3.2" stroke-linejoin="round"/><polygon points="77.9,3.0 77.9,-1555.0 39.0,-1532.5 39.0,25.5" fill="#eec3a0" stroke="#1a1a1a" stroke-width="3.2" stroke-linejoin="round"/><polygon points="39.0,-1577.5 77.9,-1555.0 39.0,-1532.5 0.0,-1555.0" fill="#f6dcc6" stroke="#1a1a1a" stroke-width="3.2" stroke-linejoin="round"/></g><g opacity="1.0"><polygon points="-77.9,45.0 1654.1,1045.0 1654.1,1003.0 -77.9,3.0" fill="#e0a97e" stroke="#1a1a1a" stroke-width="3.2" stroke-linejoin="round"/><polygon points="1732.1,1000.0 1732.1,958.0 1654.1,1003.0 1654.1,1045.0" fill="#eec3a0" stroke="#1a1a1a" stroke-width="3.2" stroke-linejoin="round"/><polygon points="0.0,-42.0 1732.1,958.0 1654.1,1003.0 -77.9,3.0" fill="#f6dcc6" stroke="#1a1a1a" stroke-width="3.2" stroke-linejoin="round"/></g><g opacity="1.0"><polygon points="394.0,230.5 433.0,253.0 433.0,-1305.0 394.0,-1327.5" fill="#e0a97e" stroke="#1a1a1a" stroke-width="3.2" stroke-linejoin="round"/><polygon points="472.0,230.5 472.0,-1327.5 433.0,-1305.0 433.0,253.0" fill="#eec3a0" stroke="#1a1a1a" stroke-width="3.2" stroke-linejoin="round"/><polygon points="433.0,-1350.0 472.0,-1327.5 433.0,-1305.0 394.0,-1327.5" fill="#f6dcc6" stroke="#1a1a1a" stroke-width="3.2" stroke-linejoin="round"/></g><g opacity="1.0"><polygon points="827.1,480.5 866.0,503.0 866.0,-1055.0 827.1,-1077.5" fill="#e0a97e" stroke="#1a1a1a" stroke-width="3.2" stroke-linejoin="round"/><polygon points="905.0,480.5 905.0,-1077.5 866.0,-1055.0 866.0,503.0" fill="#eec3a0" stroke="#1a1a1a" stroke-width="3.2" stroke-linejoin="round"/><polygon points="866.0,-1100.0 905.0,-1077.5 866.0,-1055.0 827.1,-1077.5" fill="#f6dcc6" stroke="#1a1a1a" stroke-width="3.2" stroke-linejoin="round"/></g><g opacity="1.0"><polygon points="439.9,-996.0 2172.0,4.0 2172.0,-1554.0 439.9,-2554.0" fill="#b8bdc3" stroke="#1a1a1a" stroke-width="3.2" stroke-linejoin="round"/><polygon points="2182.4,-2.0 2182.4,-1560.0 2172.0,-1554.0 2172.0,4.0" fill="#cfd3d7" stroke="#1a1a1a" stroke-width="3.2" stroke-linejoin="round"/><polygon points="450.3,-2560.0 2182.4,-1560.0 2172.0,-1554.0 439.9,-2554.0" fill="#e4e6e8" stroke="#1a1a1a" stroke-width="3.2" stroke-linejoin="round"/></g><g opacity="1.0"><polygon points="1260.1,730.5 1299.0,753.0 1299.0,-805.0 1260.1,-827.5" fill="#e0a97e" stroke="#1a1a1a" stroke-width="3.2" stroke-linejoin="round"/><polygon points="1338.0,730.5 1338.0,-827.5 1299.0,-805.0 1299.0,753.0" fill="#eec3a0" stroke="#1a1a1a" stroke-width="3.2" stroke-linejoin="round"/><polygon points="1299.0,-850.0 1338.0,-827.5 1299.0,-805.0 1260.1,-827.5" fill="#f6dcc6" stroke="#1a1a1a" stroke-width="3.2" stroke-linejoin="round"/></g><g opacity="1.0"><polygon points="-77.9,-1555.0 1654.1,-555.0 1654.1,-597.0 -77.9,-1597.0" fill="#e0a97e" stroke="#1a1a1a" stroke-width="3.2" stroke-linejoin="round"/><polygon points="1732.1,-600.0 1732.1,-642.0 1654.1,-597.0 1654.1,-555.0" fill="#eec3a0" stroke="#1a1a1a" stroke-width="3.2" stroke-linejoin="round"/><polygon points="0.0,-1642.0 1732.1,-642.0 1654.1,-597.0 -77.9,-1597.0" fill="#f6dcc6" stroke="#1a1a1a" stroke-width="3.2" stroke-linejoin="round"/></g><g opacity="1.0"><polygon points="1615.1,935.5 1654.1,958.0 1654.1,-600.0 1615.1,-622.5" fill="#e0a97e" stroke="#1a1a1a" stroke-width="3.2" stroke-linejoin="round"/><polygon points="1693.1,935.5 1693.1,-622.5 1654.1,-600.0 1654.1,958.0" fill="#eec3a0" stroke="#1a1a1a" stroke-width="3.2" stroke-linejoin="round"/><polygon points="1654.1,-645.0 1693.1,-622.5 1654.1,-600.0 1615.1,-622.5" fill="#f6dcc6" stroke="#1a1a1a" stroke-width="3.2" stroke-linejoin="round"/></g><g opacity="1.0"><polygon points="1654.1,958.0 1693.1,980.5 1693.1,-577.5 1654.1,-600.0" fill="#e0a97e" stroke="#1a1a1a" stroke-width="3.2" stroke-linejoin="round"/><polygon points="1732.1,958.0 1732.1,-600.0 1693.1,-577.5 1693.1,980.5" fill="#eec3a0" stroke="#1a1a1a" stroke-width="3.2" stroke-linejoin="round"/><polygon points="1693.1,-622.5 1732.1,-600.0 1693.1,-577.5 1654.1,-600.0" fill="#f6dcc6" stroke="#1a1a1a" stroke-width="3.2" stroke-linejoin="round"/></g><line x1="1299.0" y1="-432.0" x2="792.4" y2="440.5" stroke="#b3261e" stroke-width="6" marker-end="url(#ar)"/><line x1="-77.9" y1="45.0" x2="-77.9" y2="465.0" stroke="#b3261e" stroke-width="1.6" stroke-dasharray="6 6"/><line x1="1654.1" y1="1045.0" x2="1654.1" y2="1465.0" stroke="#b3261e" stroke-width="1.6" stroke-dasharray="6 6"/><line x1="-77.9" y1="465.0" x2="1654.1" y2="1465.0" stroke="#b3261e" stroke-width="2.6" marker-start="url(#dt)" marker-end="url(#dt)"/><line x1="0.0" y1="0.0" x2="-420.0" y2="0.0" stroke="#b3261e" stroke-width="1.6" stroke-dasharray="6 6"/><line x1="0.0" y1="-1642.0" x2="-420.0" y2="-1642.0" stroke="#b3261e" stroke-width="1.6" stroke-dasharray="6 6"/><line x1="-420.0" y1="0.0" x2="-420.0" y2="-1642.0" stroke="#b3261e" stroke-width="2.6" marker-start="url(#dt)" marker-end="url(#dt)"/><line x1="0.0" y1="-42.0" x2="0.0" y2="-342.0" stroke="#b3261e" stroke-width="1.6" stroke-dasharray="6 6"/><line x1="433.0" y1="208.0" x2="433.0" y2="-92.0" stroke="#b3261e" stroke-width="1.6" stroke-dasharray="6 6"/><line x1="0.0" y1="-342.0" x2="433.0" y2="-92.0" stroke="#b3261e" stroke-width="2.6" marker-start="url(#dt)" marker-end="url(#dt)"/><line x1="0.0" y1="-1555.0" x2="-380.0" y2="-1975.0" stroke="#1a1a1a" stroke-width="2.2"/><circle cx="0.0" cy="-1555.0" r="5" fill="#1a1a1a"/><line x1="1306.0" y1="-496.0" x2="1726.0" y2="-856.0" stroke="#1a1a1a" stroke-width="2.2"/><circle cx="1306.0" cy="-496.0" r="5" fill="#1a1a1a"/><line x1="788.1" y1="545.0" x2="1208.1" y2="965.0" stroke="#1a1a1a" stroke-width="2.2"/><circle cx="788.1" cy="545.0" r="5" fill="#1a1a1a"/><line x1="827.1" y1="-298.5" x2="407.1" y2="1.5" stroke="#1a1a1a" stroke-width="2.2"/><circle cx="827.1" cy="-298.5" r="5" fill="#1a1a1a"/><text class="d" style="font-size:118.4px" x="788.1" y="1071.5" text-anchor="middle">L = lumina intre stalpi (M3), nominal 2000</text><text class="d" style="font-size:118.4px" x="-420.0" y="-870.7" text-anchor="middle">inaltime perete</text><text class="d" style="font-size:118.4px" x="216.5" y="-266.7" text-anchor="middle">~500 interax</text><text class="l" style="font-size:118.4px" x="-421.4" y="-1934.8" text-anchor="end">montant DUBLU la fiecare capat de perete</text><text class="l" style="font-size:118.4px" x="1767.4" y="-815.8" text-anchor="start">inchidere: lambriu pe sipci + diagonale — vezi PLAN-pereti-lambriu</text><text class="l" style="font-size:118.4px" x="1249.5" y="1005.2" text-anchor="start">talpa si cununa 42×90, asezate pe LAT</text><text class="l" style="font-size:118.4px" x="365.6" y="41.8" text-anchor="end">diagonalele panoului egale ±3 mm INAINTE de inchidere</text></svg>