<svg xmlns="http://www.w3.org/2000/svg" viewBox="-4741 -357 8665 2281"><defs><marker id="ar" markerWidth="11" markerHeight="11" refX="9" refY="5.5" orient="auto"><path d="M0,0 L11,5.5 L0,11 Z" fill="#b3261e"/></marker><marker id="dt" markerWidth="9" markerHeight="9" refX="4.5" refY="4.5" orient="auto"><circle cx="4.5" cy="4.5" r="3.4" fill="#b3261e"/></marker></defs><style>text{font-family:Helvetica,Arial,sans-serif}.l{fill:#1a1a1a}.s{fill:#555}.d{fill:#b3261e;font-family:"Courier New",monospace;font-weight:bold}.bal{fill:#fff;font-weight:bold}</style><g opacity="1.0"><polygon points="-952.6,550.0 779.4,1550.0 779.4,1508.0 -952.6,508.0" fill="#cbc3b3" stroke="#1a1a1a" stroke-width="3.2" stroke-linejoin="round"/><polygon points="857.4,1505.0 857.4,1463.0 779.4,1508.0 779.4,1550.0" fill="#ded8cc" stroke="#1a1a1a" stroke-width="3.2" stroke-linejoin="round"/><polygon points="-874.7,463.0 857.4,1463.0 779.4,1508.0 -952.6,508.0" fill="#efece6" stroke="#1a1a1a" stroke-width="3.2" stroke-linejoin="round"/></g><g opacity="1.0"><polygon points="-77.9,345.0 1654.1,1345.0 1654.1,1303.0 -77.9,303.0" fill="#cbc3b3" stroke="#1a1a1a" stroke-width="3.2" stroke-linejoin="round"/><polygon points="1732.1,1300.0 1732.1,1258.0 1654.1,1303.0 1654.1,1345.0" fill="#ded8cc" stroke="#1a1a1a" stroke-width="3.2" stroke-linejoin="round"/><polygon points="0.0,258.0 1732.1,1258.0 1654.1,1303.0 -77.9,303.0" fill="#efece6" stroke="#1a1a1a" stroke-width="3.2" stroke-linejoin="round"/></g><polygon points="1039.2,655.0 1039.2,565.0 961.3,610.0 961.3,700.0" fill="#e0a97e" stroke="#1a1a1a" stroke-width="3.2" stroke-linejoin="round"/><polygon points="1039.2,565.0 -86.6,215.0 -164.5,260.0 961.3,610.0" fill="#eec3a0" stroke="#1a1a1a" stroke-width="3.2" stroke-linejoin="round"/><polygon points="-164.5,350.0 961.3,700.0 961.3,610.0 -164.5,260.0" fill="#f6dcc6" stroke="#1a1a1a" stroke-width="3.2" stroke-linejoin="round"/><polygon points="1039.2,655.0 1039.2,565.0 961.3,610.0 961.3,700.0" fill="#e0a97e" stroke="#1a1a1a" stroke-width="3.2" stroke-linejoin="round"/><polygon points="1039.2,565.0 -86.6,215.0 -164.5,260.0 961.3,610.0" fill="#eec3a0" stroke="#1a1a1a" stroke-width="3.2" stroke-linejoin="round"/><polygon points="-164.5,350.0 961.3,700.0 961.3,610.0 -164.5,260.0" fill="#f6dcc6" stroke="#1a1a1a" stroke-width="3.2" stroke-linejoin="round"/><polygon points="1039.2,655.0 1039.2,565.0 961.3,610.0 961.3,700.0" fill="#e0a97e" stroke="#1a1a1a" stroke-width="3.2" stroke-linejoin="round"/><polygon points="1039.2,565.0 -86.6,215.0 -164.5,260.0 961.3,610.0" fill="#eec3a0" stroke="#1a1a1a" stroke-width="3.2" stroke-linejoin="round"/><polygon points="-164.5,350.0 961.3,700.0 961.3,610.0 -164.5,260.0" fill="#f6dcc6" stroke="#1a1a1a" stroke-width="3.2" stroke-linejoin="round"/><polygon points="1039.2,655.0 1039.2,565.0 961.3,610.0 961.3,700.0" fill="#e0a97e" stroke="#1a1a1a" stroke-width="3.2" stroke-linejoin="round"/><polygon points="1039.2,565.0 -86.6,215.0 -164.5,260.0 961.3,610.0" fill="#eec3a0" stroke="#1a1a1a" stroke-width="3.2" stroke-linejoin="round"/><polygon points="-164.5,350.0 961.3,700.0 961.3,610.0 -164.5,260.0" fill="#f6dcc6" stroke="#1a1a1a" stroke-width="3.2" stroke-linejoin="round"/><polygon points="1039.2,655.0 1039.2,565.0 961.3,610.0 961.3,700.0" fill="#e0a97e" stroke="#1a1a1a" stroke-width="3.2" stroke-linejoin="round"/><polygon points="1039.2,565.0 -86.6,215.0 -164.5,260.0 961.3,610.0" fill="#eec3a0" stroke="#1a1a1a" stroke-width="3.2" stroke-linejoin="round"/><polygon points="-164.5,350.0 961.3,700.0 961.3,610.0 -164.5,260.0" fill="#f6dcc6" stroke="#1a1a1a" stroke-width="3.2" stroke-linejoin="round"/><g opacity="1.0"><polygon points="-95.3,250.0 1810.0,1350.0 1810.0,1305.0 -95.3,205.0" fill="#e0a97e" stroke="#1a1a1a" stroke-width="3.2" stroke-linejoin="round"/><polygon points="1849.0,1327.5 1849.0,1282.5 1810.0,1305.0 1810.0,1350.0" fill="#eec3a0" stroke="#1a1a1a" stroke-width="3.2" stroke-linejoin="round"/><polygon points="-56.3,182.5 1849.0,1282.5 1810.0,1305.0 -95.3,205.0" fill="#f6dcc6" stroke="#1a1a1a" stroke-width="3.2" stroke-linejoin="round"/></g><g opacity="1.0"><polygon points="-399.2,344.5 1506.0,1444.5 1506.0,1399.5 -399.2,299.5" fill="#e0a97e" stroke="#1a1a1a" stroke-width="3.2" stroke-linejoin="round"/><polygon points="1545.0,1422.0 1545.0,1377.0 1506.0,1399.5 1506.0,1444.5" fill="#eec3a0" stroke="#1a1a1a" stroke-width="3.2" stroke-linejoin="round"/><polygon points="-360.3,277.0 1545.0,1377.0 1506.0,1399.5 -399.2,299.5" fill="#f6dcc6" stroke="#1a1a1a" stroke-width="3.2" stroke-linejoin="round"/></g><g opacity="1.0"><polygon points="-714.5,442.5 1190.8,1542.5 1190.8,1497.5 -714.5,397.5" fill="#e0a97e" stroke="#1a1a1a" stroke-width="3.2" stroke-linejoin="round"/><polygon points="1229.8,1520.0 1229.8,1475.0 1190.8,1497.5 1190.8,1542.5" fill="#eec3a0" stroke="#1a1a1a" stroke-width="3.2" stroke-linejoin="round"/><polygon points="-675.5,375.0 1229.8,1475.0 1190.8,1497.5 -714.5,397.5" fill="#f6dcc6" stroke="#1a1a1a" stroke-width="3.2" stroke-linejoin="round"/></g><g opacity="1.0"><polygon points="-1029.7,540.5 875.6,1640.5 875.6,1595.5 -1029.7,495.5" fill="#e0a97e" stroke="#1a1a1a" stroke-width="3.2" stroke-linejoin="round"/><polygon points="914.5,1618.0 914.5,1573.0 875.6,1595.5 875.6,1640.5" fill="#eec3a0" stroke="#1a1a1a" stroke-width="3.2" stroke-linejoin="round"/><polygon points="-990.7,473.0 914.5,1573.0 875.6,1595.5 -1029.7,495.5" fill="#f6dcc6" stroke="#1a1a1a" stroke-width="3.2" stroke-linejoin="round"/></g><line x1="433.0" y1="930.0" x2="893.0" y2="510.0" stroke="#1a1a1a" stroke-width="2.2"/><circle cx="433.0" cy="930.0" r="5" fill="#1a1a1a"/><line x1="519.6" y1="260.0" x2="89.6" y2="800.0" stroke="#1a1a1a" stroke-width="2.2"/><circle cx="519.6" cy="260.0" r="5" fill="#1a1a1a"/><line x1="424.4" y1="1295.0" x2="884.4" y2="1615.0" stroke="#1a1a1a" stroke-width="2.2"/><circle cx="424.4" cy="1295.0" r="5" fill="#1a1a1a"/><line x1="86.6" y1="250.0" x2="-373.4" y2="-50.0" stroke="#1a1a1a" stroke-width="2.2"/><circle cx="86.6" cy="250.0" r="5" fill="#1a1a1a"/><line x1="-874.7" y1="505.0" x2="-1254.7" y2="505.0" stroke="#b3261e" stroke-width="1.6" stroke-dasharray="6 6"/><line x1="-874.7" y1="805.0" x2="-1254.7" y2="805.0" stroke="#b3261e" stroke-width="1.6" stroke-dasharray="6 6"/><line x1="-1254.7" y1="505.0" x2="-1254.7" y2="805.0" stroke="#b3261e" stroke-width="2.6" marker-start="url(#dt)" marker-end="url(#dt)"/><line x1="-952.6" y1="550.0" x2="-952.6" y2="250.0" stroke="#b3261e" stroke-width="1.6" stroke-dasharray="6 6"/><line x1="-519.6" y1="800.0" x2="-519.6" y2="500.0" stroke="#b3261e" stroke-width="1.6" stroke-dasharray="6 6"/><line x1="-952.6" y1="250.0" x2="-519.6" y2="500.0" stroke="#b3261e" stroke-width="2.6" marker-start="url(#dt)" marker-end="url(#dt)"/><text class="l" style="font-size:91.3px" x="925.0" y="541.0" text-anchor="start">5 capriori 42×90 la 500 interax</text><text class="l" style="font-size:91.3px" x="57.7" y="831.0" text-anchor="end">sipci 45×45 la ≤450 — nu 500 (zapada)</text><text class="l" style="font-size:91.3px" x="916.3" y="1646.0" text-anchor="start">ANCORA anti-vant la AMBELE capete ale FIECARUI caprior</text><text class="l" style="font-size:91.3px" x="-405.3" y="-19.0" text-anchor="end">streasina fata 100 — teseste muchia (la ~1,61 peste podea, la inaltimea capului)</text><text class="d" style="font-size:91.3px" x="-1254.7" y="616.7" text-anchor="middle">308 = panta pe 1100 → 15,6°</text><text class="d" style="font-size:91.3px" x="-736.1" y="336.7" text-anchor="middle">500</text></svg>